{"scene":0,"asset":{"generator":"ImageToStl.com","version":"2.0"},"scenes":[{"name":"Scene","nodes":[0]}],"nodes":[{"name":"Node0","children":[1,2,3,4,5]},{"name":"Node1","mesh":0},{"name":"Node2","mesh":1},{"name":"Node3","mesh":2},{"name":"Node4","mesh":3},{"name":"Node5","mesh":4}],"materials":[{"name":"BackGroundMat","pbrMetallicRoughness":{"baseColorFactor":[0.6,0.6,0.6,1.0],"metallicFactor":0.0,"roughnessFactor":1.0},"doubleSided":true},{"name":"InnerMat","pbrMetallicRoughness":{"baseColorFactor":[0.2,0.2,0.2,1.0],"metallicFactor":0.3,"roughnessFactor":0.992},"doubleSided":true},{"name":"LTELogo","pbrMetallicRoughness":{"baseColorFactor":[0.25,0.25,0.25,1.0],"metallicFactor":0.5,"roughnessFactor":0.8},"doubleSided":true},{"name":"Material","pbrMetallicRoughness":{"baseColorFactor":[1.0,1.0,1.0,1.0],"metallicFactor":0.0,"roughnessFactor":1.0},"emissiveFactor":[1.0,1.0,1.0],"doubleSided":true},{"name":"OuterMat","pbrMetallicRoughness":{"baseColorFactor":[0.1,0.04,0.01,1.0],"metallicFactor":0.1,"roughnessFactor":0.99},"doubleSided":true}],"meshes":[{"name":"Mesh0","primitives":[{"indices":3,"material":0,"attributes":{"POSITION":0,"NORMAL":1,"TEXCOORD_0":2}}]},{"name":"Mesh0","primitives":[{"indices":7,"material":1,"attributes":{"POSITION":4,"NORMAL":5,"TEXCOORD_0":6}}]},{"name":"Mesh0","primitives":[{"indices":11,"material":2,"attributes":{"POSITION":8,"NORMAL":9,"TEXCOORD_0":10}}]},{"name":"Mesh0","primitives":[{"indices":14,"material":3,"attributes":{"POSITION":12,"NORMAL":13}}]},{"name":"Mesh0","primitives":[{"indices":18,"material":4,"attributes":{"POSITION":15,"NORMAL":16,"TEXCOORD_0":17}}]}],"accessors":[{"bufferView":0,"componentType":5126,"count":121,"type":"VEC3","min":[-9.375,-0.5,-3.75],"max":[9.375,6.282658,10.567867]},{"bufferView":1,"componentType":5126,"count":121,"type":"VEC3"},{"bufferView":2,"componentType":5126,"count":121,"type":"VEC2"},{"bufferView":3,"componentType":5123,"count":1800,"type":"SCALAR"},{"bufferView":4,"componentType":5126,"count":2457,"type":"VEC3","min":[-0.35625,-0.296162,-0.35625],"max":[0.35625,0.416337,0.35625]},{"bufferView":5,"componentType":5126,"count":2457,"type":"VEC3"},{"bufferView":6,"componentType":5126,"count":2457,"type":"VEC2"},{"bufferView":7,"componentType":5123,"count":39996,"type":"SCALAR"},{"bufferView":8,"componentType":5126,"count":1834,"type":"VEC3","min":[-1.249583,-0.5,-0.539085],"max":[-0.465995,-0.46462,-0.316463]},{"bufferView":9,"componentType":5126,"count":1834,"type":"VEC3"},{"bufferView":10,"componentType":5126,"count":1834,"type":"VEC2"},{"bufferView":11,"componentType":5123,"count":30060,"type":"SCALAR"},{"bufferView":12,"componentType":5126,"count":4,"type":"VEC3","min":[-3.75,12.017239,-3.748953],"max":[3.75,12.194347,3.748953]},{"bufferView":13,"componentType":5126,"count":4,"type":"VEC3"},{"bufferView":14,"componentType":5123,"count":6,"type":"SCALAR"},{"bufferView":15,"componentType":5126,"count":2173,"type":"VEC3","min":[-0.540772,-0.497282,-0.458561],"max":[0.540772,0.52106,0.540772]},{"bufferView":16,"componentType":5126,"count":2173,"type":"VEC3"},{"bufferView":17,"componentType":5126,"count":2173,"type":"VEC2"},{"bufferView":18,"componentType":5123,"count":35856,"type":"SCALAR"}],"bufferViews":[{"target":34962,"buffer":0,"byteLength":1452,"byteOffset":0},{"target":34962,"buffer":0,"byteLength":1452,"byteOffset":1452},{"target":34962,"buffer":0,"byteLength":968,"byteOffset":2904},{"target":34963,"buffer":0,"byteLength":3600,"byteOffset":3872},{"target":34962,"buffer":0,"byteLength":29484,"byteOffset":7472},{"target":34962,"buffer":0,"byteLength":29484,"byteOffset":36956},{"target":34962,"buffer":0,"byteLength":19656,"byteOffset":66440},{"target":34963,"buffer":0,"byteLength":79992,"byteOffset":86096},{"target":34962,"buffer":0,"byteLength":22008,"byteOffset":166088},{"target":34962,"buffer":0,"byteLength":22008,"byteOffset":188096},{"target":34962,"buffer":0,"byteLength":14672,"byteOffset":210104},{"target":34963,"buffer":0,"byteLength":60120,"byteOffset":224776},{"target":34962,"buffer":0,"byteLength":48,"byteOffset":284896},{"target":34962,"buffer":0,"byteLength":48,"byteOffset":284944},{"target":34963,"buffer":0,"byteLength":12,"byteOffset":284992},{"target":34962,"buffer":0,"byteLength":26076,"byteOffset":285004},{"target":34962,"buffer":0,"byteLength":26076,"byteOffset":311080},{"target":34962,"buffer":0,"byteLength":17384,"byteOffset":337156},{"target":34963,"buffer":0,"byteLength":71712,"byteOffset":354540}],"buffers":[{"byteLength":426252,"uri":"data:application/octet-stream;base64,"}]}